<svg width="59" height="62" viewBox="0 0 59 62" fill="none" xmlns="http://www.w3.org/2000/svg">
<g id="Group 26">
<g id="Group">
<g id="Group_2">
<path id="Vector" d="M30.2509 0.5C29.2789 0.5 28.4907 1.28804 28.4907 2.2602V12.7322C28.4907 13.7043 29.2789 14.4924 30.2509 14.4924C31.2229 14.4924 32.0111 13.7043 32.0111 12.7322V2.2602C32.0111 1.28804 31.2229 0.5 30.2509 0.5Z" fill="#181818"/>
</g>
</g>
<g id="Group_3">
<g id="Group_4">
<path id="Vector_2" d="M20.2771 15.5288L16.0657 11.321C15.3776 10.6338 14.2634 10.6344 13.5762 11.3221C12.8892 12.0098 12.8897 13.1242 13.5773 13.8114L17.7889 18.0191C18.1327 18.3625 18.5829 18.5342 19.033 18.5342C19.4838 18.5342 19.9344 18.362 20.2782 18.0181C20.9652 17.3304 20.9647 16.216 20.2771 15.5288Z" fill="#181818"/>
</g>
</g>
<g id="Group_5">
<g id="Group_6">
<path id="Vector_3" d="M46.9291 11.3253C46.2414 10.638 45.1268 10.6387 44.4396 11.3262L39.9622 15.8072C39.2752 16.4949 39.2757 17.6093 39.9632 18.2964C40.307 18.64 40.7575 18.8117 41.2075 18.8117C41.6583 18.8117 42.1089 18.6395 42.4527 18.2956L46.9301 13.8146C47.6171 13.1269 47.6166 12.0125 46.9291 11.3253Z" fill="#181818"/>
</g>
</g>
<g id="Group_7">
<g id="Group_8">
<path id="Vector_4" d="M51.2564 38.0995H50.33C51.086 37.114 51.5368 35.8826 51.5368 34.5474V32.9273C51.5368 29.7025 48.9134 27.0791 45.6888 27.0791C42.4642 27.0791 39.8407 29.7025 39.8407 32.9271V34.1866L31.2045 25.5502C30.7252 25.0711 30.0204 24.9173 29.3879 25.1457C28.7556 24.9173 28.0505 25.0711 27.5711 25.5504L18.935 34.1866V32.9271C18.9348 29.7025 16.3114 27.0791 13.0867 27.0791C9.86212 27.0791 7.23869 29.7025 7.23869 32.9271V34.5473C7.23869 35.8826 7.68949 37.1139 8.44554 38.0994H7.51913C3.37305 38.0995 0 41.4726 0 45.6186V60.8291C0 61.4631 0.514056 61.9771 1.14796 61.9771H5.99809C6.11288 61.9771 6.22355 61.9597 6.32812 61.9284C6.4327 61.9597 6.54337 61.9771 6.65816 61.9771H19.5153C20.1492 61.9771 20.6633 61.4631 20.6633 60.8291V56.926C20.6633 56.292 20.1492 55.7781 19.5153 55.7781C18.8814 55.7781 18.3673 56.292 18.3673 56.926V59.6811H7.80612V46.6005C7.80612 45.9665 7.29207 45.4525 6.65816 45.4525C6.02426 45.4525 5.5102 45.9665 5.5102 46.6005V59.6811H2.29592V45.6186C2.29592 42.7385 4.63902 40.3954 7.51913 40.3954H15.4974C15.8134 40.3954 16.0994 40.2677 16.307 40.0613C16.3078 40.0605 16.3085 40.06 16.3093 40.0593L28.233 28.1355C28.1548 30.5195 27.4133 32.8158 26.0764 34.8014L18.5632 45.9594C18.4356 46.1489 18.3675 46.3722 18.3675 46.6005V47.8572C18.3675 48.4912 18.8815 49.0051 19.5154 49.0051C20.1493 49.0051 20.6634 48.4912 20.6634 47.8572V46.9508L27.9808 36.0836C28.5399 35.2533 29.0087 34.376 29.3879 33.4653C29.767 34.376 30.2358 35.2533 30.7949 36.0836L38.1122 46.9508V60.8291C38.1122 61.4631 38.6263 61.9771 39.2602 61.9771H52.1173C52.2321 61.9771 52.3428 61.9597 52.4474 61.9284C52.552 61.9597 52.6626 61.9771 52.7774 61.9771H57.6275C58.2615 61.9771 58.7755 61.4631 58.7755 60.8291V45.6186C58.7755 41.4726 55.4025 38.0995 51.2564 38.0995ZM16.6389 34.5473C16.6389 36.506 15.0455 38.0995 13.0867 38.0995C11.128 38.0995 9.5346 36.506 9.5346 34.5474V32.9273C9.5346 30.9685 11.1281 29.375 13.0867 29.375C15.0454 29.375 16.6389 30.9685 16.6389 32.9271V34.5473ZM42.1366 32.9271C42.1366 30.9685 43.7301 29.375 45.6888 29.375C47.6474 29.375 49.2409 30.9685 49.2409 32.9271V34.5473C49.2409 36.506 47.6475 38.0995 45.6888 38.0995C43.73 38.0995 42.1366 36.506 42.1366 34.5474V32.9271ZM56.4796 59.6811H53.2653V51.1862C53.2653 50.5522 52.7512 50.0383 52.1173 50.0383C51.4834 50.0383 50.9694 50.5522 50.9694 51.1862V59.6811H40.4082V46.6005C40.4082 46.372 40.34 46.1488 40.2124 45.9594L32.6993 34.8015C31.3624 32.8159 30.6208 30.5196 30.5426 28.1356L42.4663 40.0593C42.4815 40.0745 42.4957 40.0872 42.5095 40.0986C42.713 40.2826 42.9821 40.3957 43.2781 40.3957H51.2564C54.1365 40.3957 56.4796 42.7388 56.4796 45.6189V59.6811Z" fill="#6127D8"/>
</g>
</g>
</g>
</svg>
