<svg width="78" height="79" viewBox="0 0 78 79" fill="none" xmlns="http://www.w3.org/2000/svg">
<path d="M39 10.25C38.103 10.25 37.375 9.522 37.375 8.625V2.125C37.375 1.228 38.103 0.5 39 0.5C39.897 0.5 40.625 1.228 40.625 2.125V8.625C40.625 9.522 39.897 10.25 39 10.25Z" fill="black"/>
<path d="M60.8336 19.2915C60.4176 19.2915 60.0016 19.1323 59.6831 18.817C59.0493 18.1833 59.0493 17.153 59.6831 16.5193L64.2786 11.9238C64.9123 11.29 65.9426 11.29 66.5763 11.9238C67.2101 12.5575 67.2101 13.5878 66.5763 14.2215L61.9808 18.817C61.6656 19.1323 61.2496 19.2915 60.8336 19.2915Z" fill="black"/>
<path d="M76.375 41.125H69.875C68.978 41.125 68.25 40.397 68.25 39.5C68.25 38.603 68.978 37.875 69.875 37.875H76.375C77.272 37.875 78 38.603 78 39.5C78 40.397 77.272 41.125 76.375 41.125Z" fill="black"/>
<path d="M65.4291 67.554C65.0131 67.554 64.5971 67.3948 64.2786 67.0795L59.6831 62.484C59.0493 61.8503 59.0493 60.82 59.6831 60.1862C60.3168 59.5525 61.3471 59.5525 61.9808 60.1862L66.5763 64.7817C67.2101 65.4155 67.2101 66.4458 66.5763 67.0795C66.2611 67.3948 65.8451 67.554 65.4291 67.554Z" fill="black"/>
<path d="M39 78.5C38.103 78.5 37.375 77.772 37.375 76.875V70.375C37.375 69.478 38.103 68.75 39 68.75C39.897 68.75 40.625 69.478 40.625 70.375V76.875C40.625 77.772 39.897 78.5 39 78.5Z" fill="black"/>
<path d="M12.571 67.554C12.155 67.554 11.739 67.3948 11.4205 67.0795C10.7868 66.4458 10.7868 65.4155 11.4205 64.7817L16.016 60.1862C16.6498 59.5525 17.68 59.5525 18.3138 60.1862C18.9475 60.82 18.9475 61.8503 18.3138 62.484L13.7183 67.0795C13.403 67.3948 12.987 67.554 12.571 67.554Z" fill="black"/>
<path d="M8.125 41.125H1.625C0.728 41.125 0 40.397 0 39.5C0 38.603 0.728 37.875 1.625 37.875H8.125C9.022 37.875 9.75 38.603 9.75 39.5C9.75 40.397 9.022 41.125 8.125 41.125Z" fill="black"/>
<path d="M17.1665 19.2915C16.7505 19.2915 16.3345 19.1323 16.016 18.817L11.4238 14.2215C10.79 13.5878 10.79 12.5575 11.4238 11.9238C12.0575 11.29 13.0878 11.29 13.7215 11.9238L18.317 16.5193C18.9508 17.153 18.9508 18.1833 18.317 18.817C17.9985 19.1323 17.5825 19.2915 17.1665 19.2915Z" fill="black"/>
<path d="M34.3622 65.5C34.1705 65.5 33.982 65.4675 33.7935 65.3993C33.0817 65.1328 32.6495 64.4113 32.7502 63.6638L35.5225 42.75H24.375C23.7607 42.75 23.1985 42.4023 22.9222 41.853C22.646 41.3038 22.7045 40.644 23.075 40.15L42.575 14.15C43.0267 13.5455 43.8295 13.331 44.5152 13.63C45.2042 13.9258 45.604 14.6505 45.4805 15.3915L42.5425 33H53.625C54.223 33 54.7723 33.3283 55.055 33.8548C55.3377 34.3813 55.3085 35.0183 54.9835 35.522L35.7207 64.772C35.412 65.2368 34.8952 65.5 34.3622 65.5ZM27.625 39.5H37.375C37.8462 39.5 38.2882 39.7048 38.597 40.0558C38.9057 40.4035 39.0487 40.8748 38.987 41.3395L36.9037 57.063L50.609 36.25H40.625C40.1472 36.25 39.6955 36.042 39.3835 35.6748C39.0747 35.3108 38.9415 34.8265 39.0227 34.3585L41.1775 21.43L27.625 39.5Z" fill="#6127D8"/>
</svg>
