<svg width="62" height="62" viewBox="0 0 62 62" fill="none" xmlns="http://www.w3.org/2000/svg">
<g id="Group 27">
<g id="Group">
<g id="Group_2">
<path id="Vector" d="M57.1815 24.4647C58.3042 23.3704 58.7005 21.7643 58.2161 20.2733C57.7316 18.7823 56.4669 17.716 54.9155 17.4907L41.3493 15.5194C41.083 15.4808 40.8528 15.3135 40.7337 15.0721L34.6668 2.77923C33.973 1.37333 32.5681 0.5 31.0003 0.5C29.4325 0.5 28.0275 1.37333 27.3338 2.77923L21.2669 15.0722C21.1476 15.3135 20.9175 15.4808 20.6511 15.5195L7.08521 17.4907C5.53376 17.716 4.26917 18.7823 3.78456 20.2733C3.29994 21.7643 3.6964 23.3704 4.81918 24.4647L14.6357 34.0334C14.8283 34.2214 14.9164 34.492 14.8708 34.7573L12.5534 48.2685C12.2885 49.8138 12.9116 51.346 14.18 52.2675C15.4483 53.1893 17.0986 53.3083 18.4861 52.579L30.6198 46.1999C30.8581 46.0745 31.1426 46.0745 31.381 46.1999L43.5148 52.579C44.1184 52.8962 44.7714 53.053 45.4214 53.0529C46.2654 53.0529 47.1041 52.7885 47.8206 52.2674C49.0889 51.3457 49.7122 49.8134 49.4471 48.2684L47.1297 34.7572C47.0843 34.4919 47.1722 34.2213 47.3649 34.0333L57.1815 24.4647ZM43.9061 35.3104L46.2235 48.8218C46.301 49.2739 46.0219 49.5318 45.8982 49.6215C45.7745 49.7111 45.4429 49.8972 45.037 49.6836L32.9032 43.3045C32.3075 42.9915 31.6541 42.8348 31.0005 42.8348C30.347 42.8348 29.6934 42.9915 29.0979 43.3044L16.9642 49.6834C16.558 49.8969 16.2266 49.711 16.103 49.6212C15.9793 49.5315 15.7001 49.2737 15.7777 48.8215L18.0951 35.3104C18.3226 33.9838 17.8832 32.6309 16.9191 31.6914L7.10265 22.1226C6.77412 21.8022 6.84847 21.4296 6.89582 21.2843C6.94293 21.1389 7.10192 20.7936 7.5559 20.7278L21.1217 18.7565C22.4536 18.563 23.6046 17.7269 24.2004 16.5198L30.2673 4.22678C30.4704 3.81543 30.8477 3.77099 31.0006 3.77099C31.1533 3.77099 31.5307 3.81531 31.7339 4.22678V4.22691L37.8008 16.5199C38.3965 17.7271 39.5473 18.5631 40.8792 18.7566L54.4453 20.7279C54.8992 20.7938 55.0581 21.139 55.1053 21.2844C55.1526 21.4299 55.227 21.8026 54.8984 22.1228L45.0819 31.6915C44.118 32.6309 43.6786 33.9838 43.9061 35.3104Z" fill="#6127D8"/>
</g>
</g>
<g id="Group_3">
<g id="Group_4">
<path id="Vector_2" d="M50.1065 2.77837C49.3755 2.24749 48.3529 2.40952 47.822 3.1402L46.0859 5.52962C45.555 6.2603 45.7169 7.28318 46.4477 7.81406C46.7382 8.02488 47.0745 8.12648 47.4078 8.12648C47.9136 8.12648 48.4122 7.89265 48.7322 7.45235L50.4683 5.06293C50.9992 4.33212 50.8373 3.30924 50.1065 2.77837Z" fill="black"/>
</g>
</g>
<g id="Group_5">
<g id="Group_6">
<path id="Vector_3" d="M15.907 5.51993L14.1708 3.1305C13.6401 2.40006 12.6173 2.23804 11.8864 2.76867C11.1557 3.29955 10.9937 4.32243 11.5246 5.05311L13.2607 7.44253C13.5808 7.88319 14.0794 8.1169 14.5854 8.1169C14.9187 8.1169 15.2551 8.01531 15.5453 7.80436C16.2759 7.27361 16.438 6.25073 15.907 5.51993Z" fill="black"/>
</g>
</g>
<g id="Group_7">
<g id="Group_8">
<path id="Vector_4" d="M6.00042 37.1937C5.7213 36.3348 4.79868 35.8646 3.93952 36.1437L1.13051 37.0565C0.271347 37.3356 -0.198618 38.2585 0.080503 39.1174C0.305011 39.8087 0.946203 40.2481 1.63559 40.2481C1.80306 40.2481 1.97344 40.222 2.1414 40.1674L4.95041 39.2546C5.80945 38.9755 6.27954 38.0529 6.00042 37.1937Z" fill="black"/>
</g>
</g>
<g id="Group_9">
<g id="Group_10">
<path id="Vector_5" d="M31.0005 55.3526C30.0972 55.3526 29.365 56.0849 29.365 56.9881V59.9418C29.365 60.8451 30.0972 61.5773 31.0005 61.5773C31.9037 61.5773 32.636 60.8451 32.636 59.9418V56.9881C32.636 56.0847 31.9038 55.3526 31.0005 55.3526Z" fill="black"/>
</g>
</g>
<g id="Group_11">
<g id="Group_12">
<path id="Vector_6" d="M60.8696 37.0589L58.0606 36.1461C57.2018 35.8672 56.2788 36.337 55.9997 37.1962C55.7206 38.0554 56.1905 38.978 57.0497 39.2571L59.8587 40.1699C60.0267 40.2244 60.1969 40.2503 60.3644 40.2503C61.0539 40.2503 61.6951 39.8109 61.9196 39.1197C62.1987 38.2606 61.7286 37.338 60.8696 37.0589Z" fill="black"/>
</g>
</g>
</g>
</svg>
