<svg width="59" height="60" viewBox="0 0 59 60" fill="none" xmlns="http://www.w3.org/2000/svg">
<g id="g2853">
<g id="g2855">
<g id="Clip path group">
<mask id="mask0_29_63" style="mask-type:luminance" maskUnits="userSpaceOnUse" x="0" y="0" width="59" height="60">
<g id="clipPath2861">
<path id="path2859" d="M0 0.500145H58.9999V59.5H0V0.500145Z" fill="white"/>
</g>
</mask>
<g mask="url(#mask0_29_63)">
<g id="g2857">
<g id="g2863">
<path id="path2865" d="M45.2664 12.7149C45.2664 19.629 39.5831 23.5573 29.5001 32.3047C19.4171 23.5573 13.7336 19.629 13.7336 12.7149C13.7336 9.30978 15.9335 3.49622 22.246 3.49622C26.1213 3.49622 28.2694 6.32522 29.5001 8.57689C30.7307 6.32522 32.8788 3.49622 36.7541 3.49622C43.0666 3.49622 45.2664 9.30978 45.2664 12.7149Z" stroke="#6127D8" stroke-width="2.5" stroke-miterlimit="10" stroke-linecap="round" stroke-linejoin="round"/>
</g>
<g id="g2867">
<path id="path2869" d="M46.3242 40.6511L52.2254 34.7488C52.8511 34.1232 53.2383 33.2589 53.2383 32.3047C53.2383 30.7998 52.2772 29.5195 50.9336 29.0447" stroke="black" stroke-width="2.5" stroke-miterlimit="10" stroke-linecap="round" stroke-linejoin="round"/>
</g>
<g id="g2871">
<path id="path2873" d="M8.06639 29.0448C8.42707 28.9169 8.81426 28.8477 9.21873 28.8477C10.1729 28.8477 11.0371 29.2349 11.6628 29.8606L14.251 32.4476C15.8608 34.0575 19.7223 35.5601 21.9867 35.7871L22.0719 35.7963C24.9805 36.0879 27.1953 38.5366 27.1953 41.4601V56.5039H14.9804V49.5899L8.79582 46.4981C4.11156 44.1554 1.15234 39.3674 1.15234 34.1301V18.4767C1.15234 16.5672 2.69994 15.0196 4.60937 15.0196C6.5188 15.0196 8.06639 16.5672 8.06639 18.4767V29.0448Z" stroke="black" stroke-width="2.5" stroke-miterlimit="10" stroke-linecap="round" stroke-linejoin="round"/>
</g>
<g id="g2875">
<path id="path2877" d="M12.6758 40.6511L6.77463 34.7488C6.14891 34.1232 5.76172 33.2589 5.76172 32.3047C5.76172 30.7998 6.72277 29.5195 8.0664 29.0447" stroke="black" stroke-width="2.5" stroke-miterlimit="10" stroke-linecap="round" stroke-linejoin="round"/>
</g>
<g id="g2879">
<path id="path2881" d="M54.0447 44.75C54.0447 45.3863 53.5287 45.9023 52.8923 45.9023C52.256 45.9023 51.74 45.3863 51.74 44.75C51.74 44.1137 52.256 43.5977 52.8923 43.5977C53.5287 43.5977 54.0447 44.1137 54.0447 44.75Z" fill="black"/>
</g>
<g id="g2883">
<path id="path2885" d="M56.1687 40.7335C57.2507 38.7434 57.8473 36.482 57.8473 34.13V18.4766C57.8473 16.5672 56.2999 15.0196 54.3903 15.0196C52.4809 15.0196 50.9333 16.5672 50.9333 18.4766V29.0447C50.5726 28.9168 50.1854 28.8477 49.781 28.8477C48.8268 28.8477 47.9626 29.235 47.3368 29.8607L44.7487 32.4477C43.139 34.0574 39.2774 35.56 37.0131 35.7871L36.9278 35.7963C34.0192 36.0879 31.8044 38.5367 31.8044 41.4601V56.5038H44.0193V49.5898L48.428 47.3858" stroke="black" stroke-width="2.5" stroke-miterlimit="10" stroke-linecap="round" stroke-linejoin="round"/>
</g>
</g>
</g>
</g>
</g>
</g>
</svg>
