<svg width="65" height="61" viewBox="0 0 65 61" fill="none" xmlns="http://www.w3.org/2000/svg">
<g id="Group">
<path id="Vector" d="M11.5932 9.92861C11.9361 10.4429 12.4504 10.6143 12.9647 10.6143C13.3075 10.6143 13.6504 10.4429 13.9932 10.2715C14.6789 9.75718 14.8504 8.55718 14.3361 7.87147L13.3075 6.50004C12.7932 5.81433 11.7647 5.6429 10.9075 6.15718C10.2218 6.67147 10.0504 7.87147 10.5647 8.55718L11.5932 9.92861Z" fill="black"/>
<path id="Vector_2" d="M2.85025 37.0143L1.13596 37.5286C0.278822 37.8714 -0.235464 38.7286 0.107394 39.7571C0.278822 40.4429 0.964536 40.9571 1.82168 40.9571H2.33596L4.05025 40.4429C4.90739 40.1 5.42168 39.2429 5.07882 38.2143C4.73596 37.3571 3.70739 36.8429 2.85025 37.0143Z" fill="black"/>
<path id="Vector_3" d="M28.736 5.64286C29.7646 5.64286 30.4503 4.95714 30.4503 3.92857V2.21429C30.4503 1.18571 29.7646 0.5 28.736 0.5C27.7074 0.5 27.0217 1.18571 27.0217 2.21429V3.92857C27.0217 4.95714 27.7074 5.64286 28.736 5.64286Z" fill="black"/>
<path id="Vector_4" d="M1.30748 23.4714C1.30748 23.4714 3.36462 24.1571 3.53605 24.1571C4.22176 24.1571 4.90747 23.6428 5.25033 22.9571C5.59319 22.1 5.0789 21.0714 4.22176 20.7286L2.50748 20.2143C1.65033 19.8714 0.621762 20.3857 0.278905 21.2428C-0.23538 22.1 0.278905 23.1286 1.30748 23.4714Z" fill="black"/>
<path id="Vector_5" d="M11.5932 51.0714L10.5647 52.4428C10.0504 53.1285 10.2218 54.3285 10.9075 54.8428C11.2504 55.0143 11.5932 55.1857 11.9361 55.1857C12.4504 55.1857 12.9647 55.0143 13.3075 54.5L14.3361 53.1285C14.8504 52.4428 14.6789 51.2428 13.9932 50.7285C13.3075 50.0428 12.2789 50.2143 11.5932 51.0714Z" fill="black"/>
<path id="Vector_6" d="M63.3645 27.4142C62.8502 27.0714 62.1645 26.9 61.6502 27.0714C60.1073 27.5857 58.393 27.9285 56.6788 27.5857C51.193 26.7285 47.2502 21.5857 48.1073 16.1C48.4502 14.0428 49.3073 12.1571 50.8502 10.6142C51.3645 10.1 51.3645 9.41425 51.193 8.89996C51.0216 8.21425 50.3359 7.87139 49.4788 7.69996C45.3645 7.01425 41.2502 8.04282 37.8216 10.1C35.0788 8.89996 31.993 8.21425 28.9073 8.21425C16.5645 8.04282 6.4502 18.1571 6.4502 30.5C6.4502 42.8428 16.5645 52.9571 28.9073 52.9571C36.6216 52.9571 43.8216 49.0142 47.9359 42.5C55.4788 42.1571 62.1645 36.8428 64.0502 29.1285C64.0502 28.4428 63.8787 27.7571 63.3645 27.4142ZM28.9073 49.5285C18.4502 49.5285 9.87877 40.9571 9.87877 30.5C9.87877 20.0428 18.4502 11.4714 28.9073 11.4714C30.9645 11.4714 32.8502 11.8142 34.7359 12.3285C31.993 14.9 30.2788 18.3285 29.593 22.2714C28.2216 31.7 34.5645 40.4428 43.8216 41.9857C40.2216 46.7857 34.7359 49.5285 28.9073 49.5285ZM44.8502 38.9C37.1359 37.7 31.8216 30.6714 32.8502 22.9571C33.8788 16.1 39.5359 11.1285 46.2216 10.9571C45.3645 12.3285 44.8502 14.0428 44.6788 15.7571C43.6502 23.1285 48.793 29.9857 56.1645 31.1857C57.3645 31.3571 58.393 31.3571 59.593 31.1857C57.0216 36.5 51.0216 39.7571 44.8502 38.9Z" fill="#6127D8"/>
<path id="Vector_7" d="M45.7074 51.0715C45.1931 50.3857 44.1646 50.2143 43.3074 50.7286C42.6217 51.2429 42.4503 52.4429 42.9646 53.1286L43.9931 54.5C44.336 55.0143 44.8503 55.1857 45.3646 55.1857C45.7074 55.1857 46.0503 55.0143 46.3931 54.8429C47.0788 54.3286 47.2503 53.1286 46.736 52.4429L45.7074 51.0715Z" fill="black"/>
<path id="Vector_8" d="M28.736 55.3572C27.7074 55.3572 27.0217 56.0429 27.0217 57.0715V58.7857C27.0217 59.8143 27.7074 60.5 28.736 60.5C29.7646 60.5 30.4503 59.8143 30.4503 58.7857V57.0715C30.4503 56.0429 29.5932 55.3572 28.736 55.3572Z" fill="black"/>
</g>
</svg>
