<svg width="71" height="56" viewBox="0 0 71 56" fill="none" xmlns="http://www.w3.org/2000/svg">
<g id="Group 3">
<g id="Group 25">
<path id="Vector" d="M56.9396 36.7245C56.1353 36.863 55.5951 37.6269 55.7328 38.4304C55.8713 39.2347 56.6338 39.7706 57.4388 39.6372L64.88 38.3604C65.5891 38.2385 66.1077 37.6232 66.1077 36.9041V30.2044C66.1077 29.4852 65.5891 28.8699 64.88 28.7487L58.4284 27.6415C57.7879 24.8701 56.7001 22.2423 55.1832 19.8042L58.9593 14.4426C59.3734 13.8554 59.3041 13.0555 58.7963 12.5477L54.0601 7.8114C53.553 7.30431 52.753 7.23578 52.1651 7.64838L46.8035 11.4245C44.3654 9.90759 41.7376 8.81982 38.9662 8.17928L37.8597 1.7277C37.7378 1.01864 37.1225 0.5 36.4034 0.5H29.7036C28.9845 0.5 28.3692 1.01864 28.2473 1.7277L27.1408 8.17928C24.3701 8.8191 21.7423 9.90759 19.3042 11.4245L13.9426 7.64838C13.3569 7.23578 12.5555 7.30358 12.0477 7.8114L7.31068 12.5477C6.80286 13.0555 6.73361 13.8554 7.14766 14.4426L10.9245 19.8042C9.40686 22.2423 8.3191 24.8701 7.67928 27.6415L1.2277 28.7487C0.518636 28.8699 0 29.4852 0 30.2044V36.9041C0 37.6232 0.518636 38.2385 1.2277 38.3604L7.67928 39.467C8.39484 42.5672 9.67231 45.4893 11.4843 48.1662C11.7699 48.5882 12.2352 48.8154 12.7091 48.8154C12.994 48.8154 13.2818 48.7332 13.5358 48.5615C14.2116 48.1042 14.3884 47.1859 13.931 46.51C12.1508 43.8793 10.9527 40.9846 10.3698 37.906C10.2551 37.3001 9.77618 36.8291 9.1681 36.7245L2.95457 35.6583V31.4501L9.1681 30.3833C9.77618 30.2794 10.2551 29.8084 10.3698 29.2024C10.9527 26.1231 12.1508 23.2284 13.931 20.5984C14.2751 20.0899 14.2693 19.4212 13.9152 18.9199L10.279 13.758L13.2573 10.7797L18.4199 14.4152C18.9212 14.7686 19.5892 14.7751 20.0984 14.431C22.7284 12.6515 25.6231 11.4534 28.7017 10.8698C29.3076 10.7551 29.7787 10.2762 29.8833 9.6681L30.9494 3.45457H35.1576L36.2237 9.6681C36.3283 10.2762 36.7994 10.7551 37.4053 10.8698C40.4846 11.4534 43.3793 12.6515 46.0093 14.431C46.5178 14.7751 47.1865 14.7686 47.6878 14.4152L52.8497 10.7797L55.828 13.758L52.1925 18.9199C51.8391 19.4212 51.8326 20.0899 52.1767 20.5984C53.9562 23.2284 55.1543 26.1231 55.7379 29.2024C55.8526 29.8084 56.3315 30.2794 56.9396 30.3833L63.1532 31.4501V35.6583L56.9396 36.7245Z" fill="black"/>
<path id="Vector_2" d="M34.5309 33.5542V25.823C34.5309 25.0072 33.8694 24.3457 33.0536 24.3457C32.2378 24.3457 31.5763 25.0072 31.5763 25.823V32.9425L27.6039 36.9149C27.0269 37.492 27.0269 38.4268 27.6039 39.0039C27.8925 39.2924 28.2704 39.4367 28.6484 39.4367C29.0264 39.4367 29.4044 39.2924 29.6929 39.0039L34.0981 34.5987C34.3751 34.3217 34.5309 33.9459 34.5309 33.5542Z" fill="#6127D8"/>
<path id="Vector_3" d="M70.7957 47.2544C70.7207 47.0736 70.6128 46.9101 70.4765 46.7739L65.6007 41.8982C65.0237 41.3211 64.0888 41.3211 63.5118 41.8982C62.9347 42.4753 62.9347 43.4101 63.5118 43.9872L65.8662 46.3416H42.1995C46.1853 43.4827 48.7959 38.8223 48.7959 33.5542C48.7959 24.8737 41.7341 17.8119 33.0536 17.8119C24.3738 17.8119 17.312 24.8737 17.312 33.5542C17.312 42.2332 24.3727 49.2945 33.0513 49.2957L33.0536 49.2962H65.8662L63.5118 51.6506C62.9347 52.2276 62.9347 53.1625 63.5118 53.7396C63.8003 54.0281 64.1783 54.1724 64.5562 54.1724C64.9342 54.1724 65.3122 54.0281 65.6007 53.7396L70.4765 48.8638C70.6128 48.7277 70.7207 48.5642 70.7957 48.3834C70.9451 48.0222 70.9451 47.6156 70.7957 47.2544ZM20.2666 33.5542C20.2666 26.5032 26.0026 20.7665 33.0536 20.7665C40.1046 20.7665 45.8413 26.5032 45.8413 33.5542C45.8413 40.6052 40.1046 46.3412 33.0536 46.3412C26.0026 46.3412 20.2666 40.6052 20.2666 33.5542Z" fill="#6127D8"/>
<path id="Vector_4" d="M36.4771 55.3626C37.2929 55.3626 37.9543 54.7011 37.9543 53.8853C37.9543 53.0694 37.2929 52.408 36.4771 52.408H25.9514C25.1356 52.408 24.4741 53.0694 24.4741 53.8853C24.4741 54.7011 25.1356 55.3626 25.9514 55.3626H36.4771Z" fill="black"/>
<path id="Vector_5" d="M16.5747 55.3626H20.9654C21.7813 55.3626 22.4427 54.7011 22.4427 53.8853C22.4427 53.0694 21.7813 52.408 20.9654 52.408H16.5747C15.7589 52.408 15.0974 53.0694 15.0974 53.8853C15.0974 54.7011 15.7589 55.3626 16.5747 55.3626Z" fill="black"/>
<path id="Vector_6" d="M55.497 55.3626C56.3129 55.3626 56.9743 54.7011 56.9743 53.8853C56.9743 53.0694 56.3129 52.408 55.497 52.408H43.4934C42.6776 52.408 42.0161 53.0694 42.0161 53.8853C42.0161 54.7011 42.6776 55.3626 43.4934 55.3626H55.497Z" fill="black"/>
</g>
</g>
</svg>
